<svg width="14" height="14" viewBox="0 0 14 14" fill="none" xmlns="http://www.w3.org/2000/svg">
<path fill-rule="evenodd" clip-rule="evenodd" d="M12.6553 1.34427C11.603 0.291972 9.89692 0.291983 8.84464 1.3443L8.24615 1.94281L8.2374 1.93406L7.17674 2.99472L7.1855 3.00349L1.30543 8.88374C0.78972 9.39946 0.5 10.0989 0.5 10.8283V12.7498C0.5 12.9488 0.579019 13.1395 0.719671 13.2802C0.860323 13.4208 1.05109 13.4998 1.25 13.4998L3.17155 13.4998C3.90091 13.4998 4.6004 13.2101 5.11613 12.6944L12.6554 5.15489C13.7076 4.1026 13.7076 2.39654 12.6553 1.34427ZM8.24616 4.06415L2.3661 9.94439C2.13169 10.1788 2 10.4967 2 10.8283L2 11.9998H3.17155C3.50308 11.9998 3.82103 11.8681 4.05545 11.6337L9.9355 5.75348L8.24616 4.06415ZM10.9961 4.6928L11.5947 4.09425C12.0612 3.62775 12.0612 2.87142 11.5947 2.40493C11.1282 1.93842 10.3718 1.93843 9.90532 2.40494L9.30681 3.00347L10.9961 4.6928Z" fill="#4A4A4A"/>
</svg>
