<svg width="227" height="226" viewBox="0 0 227 226" fill="none" xmlns="http://www.w3.org/2000/svg">
<path d="M187.5 124.002C187.5 134.992 185.1 145.432 180.79 154.812C169.11 180.302 143.37 198.002 113.5 198.002C83.63 198.002 57.89 180.302 46.21 154.812C41.9 145.432 39.5 134.992 39.5 124.002C39.5 83.132 72.63 50.002 113.5 50.002C154.37 50.002 187.5 83.132 187.5 124.002Z" fill="#F0F1F2"/>
<mask id="mask0_112_11101" style="mask-type:alpha" maskUnits="userSpaceOnUse" x="39" y="27" width="149" height="172">
<path d="M187.5 67.5C187.5 78.49 185.1 145.43 180.79 154.81C169.11 180.3 143.37 198 113.5 198C83.63 198 57.89 180.3 46.21 154.81C41.9 145.43 39.5 78.49 39.5 67.5C39.5 26.63 72.63 27.0001 113.5 27.0001C154.37 27.0001 187.5 26.63 187.5 67.5Z" fill="#F0F1F2"/>
</mask>
<g mask="url(#mask0_112_11101)">
<g filter="url(#filter0_d_112_11101)">
<path d="M57.3921 46.623C57.3921 45.726 58.1181 45 59.0151 45H167.769C168.666 45 169.392 45.726 169.392 46.623V196.826C169.392 197.723 168.666 198.449 167.769 198.449H59.0151C58.1181 198.449 57.3921 197.723 57.3921 196.826V46.623Z" fill="#5BA7B1"/>
<path d="M169.392 102.275H57.3921V132.71H169.392V102.275Z" fill="#7FBEC6"/>
<path d="M57.3921 132.71H169.392V196.826C169.392 197.723 168.666 198.449 167.769 198.449H59.0151C58.1181 198.449 57.3921 197.723 57.3921 196.826V132.71Z" fill="white"/>
<path d="M83.4859 102.129H79.5009L77.4719 90.0117H81.4489L81.6279 91.0827L83.4859 102.129Z" fill="white"/>
<path d="M146.241 132.851H142.7L140.295 118.513H143.835L146.241 132.851Z" fill="#6D493C"/>
<path d="M111.986 86.8274H80.9169L75.8669 56.7354H104.69C105.987 56.7354 107.094 57.6724 107.309 58.9514L111.986 86.8274Z" fill="white"/>
<path d="M80.917 86.8274H76.937L72.407 59.8294C72.135 58.2104 73.383 56.7344 75.025 56.7344H75.867L80.917 86.8274Z" fill="white"/>
<path d="M152.181 90.0302L140.642 99.4852L141.084 102.126H132.729L147.511 90.0122H125.72V86.8262H152.181V90.0302Z" fill="#6D493C"/>
<path d="M114.205 121.152L99.9271 132.851H95.2361L112.732 118.513H113.76L114.205 121.152Z" fill="#6D493C"/>
<path d="M113.549 96.1417L110.437 98.6927L106.246 102.127H83.4839L81.4519 90.0127H112.52L113.549 96.1417Z" fill="white"/>
<path d="M125.72 90.0132L114.117 99.5222L119.709 132.85H116.169L111.014 102.126L111.005 102.071L110.938 102.126L73.4449 132.85H68.7539L121.029 90.0122H72.1729V86.8262H125.72V90.0132Z" fill="#AF5947"/>
<path d="M157.179 104.784V118.514H127.993V102.128H154.524C155.99 102.128 157.179 103.317 157.179 104.784Z" fill="#D2D5D9"/>
<path d="M127.993 102.128V118.513H117.302L114.553 102.128H127.993Z" fill="#D2D5D9"/>
<path d="M113.761 118.514H90.9419L111.003 102.073L113.761 118.514Z" fill="#D2D5D9"/>
<path d="M106.243 102.13L86.229 118.516H82.252L79.501 102.13H106.243Z" fill="#D2D5D9"/>
<path d="M116.392 144H70.3921C69.2871 144 68.3921 144.895 68.3921 146C68.3921 147.105 69.2871 148 70.3921 148H116.392C117.497 148 118.392 147.105 118.392 146C118.392 144.895 117.496 144 116.392 144Z" fill="#D2D5D9"/>
<path d="M103.392 159H73.3921C70.6311 159 68.3921 161.239 68.3921 164C68.3921 166.761 70.6311 169 73.3921 169H103.392C106.153 169 108.392 166.761 108.392 164C108.392 161.239 106.153 159 103.392 159Z" fill="#00735C"/>
</g>
</g>
<defs>
<filter id="filter0_d_112_11101" x="47.3921" y="37" width="132" height="173.449" filterUnits="userSpaceOnUse" color-interpolation-filters="sRGB">
<feFlood flood-opacity="0" result="BackgroundImageFix"/>
<feColorMatrix in="SourceAlpha" type="matrix" values="0 0 0 0 0 0 0 0 0 0 0 0 0 0 0 0 0 0 127 0" result="hardAlpha"/>
<feOffset dy="2"/>
<feGaussianBlur stdDeviation="5"/>
<feColorMatrix type="matrix" values="0 0 0 0 0 0 0 0 0 0 0 0 0 0 0 0 0 0 0.3 0"/>
<feBlend mode="normal" in2="BackgroundImageFix" result="effect1_dropShadow_112_11101"/>
<feBlend mode="normal" in="SourceGraphic" in2="effect1_dropShadow_112_11101" result="shape"/>
</filter>
</defs>
</svg>
