<svg width="15" height="14" viewBox="0 0 15 14" fill="none" xmlns="http://www.w3.org/2000/svg">
<path fill-rule="evenodd" clip-rule="evenodd" d="M7.5 4.25C6.80964 4.25 6.25 4.80964 6.25 5.5C6.25 5.91421 5.91421 6.25 5.5 6.25C5.08579 6.25 4.75 5.91421 4.75 5.5C4.75 3.98122 5.98122 2.75 7.5 2.75C9.01878 2.75 10.25 3.98122 10.25 5.5C10.25 6.66431 9.5267 7.65786 8.50765 8.05931C8.40505 8.09973 8.32589 8.15689 8.28156 8.20659C8.25962 8.23119 8.2522 8.24633 8.25 8.25261C8.24859 8.66563 7.91334 9 7.5 9C7.08579 9 6.75 8.66421 6.75 8.25C6.75 7.38526 7.44646 6.86517 7.95785 6.6637C8.42296 6.48047 8.75 6.02751 8.75 5.5C8.75 4.80964 8.19036 4.25 7.5 4.25Z" fill="#4A4A4A"/>
<path d="M7.5 11.5C8.05228 11.5 8.5 11.0523 8.5 10.5C8.5 9.94772 8.05228 9.5 7.5 9.5C6.94772 9.5 6.5 9.94772 6.5 10.5C6.5 11.0523 6.94772 11.5 7.5 11.5Z" fill="#4A4A4A"/>
<path fill-rule="evenodd" clip-rule="evenodd" d="M7.5 14C11.366 14 14.5 10.866 14.5 7C14.5 3.13401 11.366 0 7.5 0C3.63401 0 0.5 3.13401 0.5 7C0.5 10.866 3.63401 14 7.5 14ZM7.5 12.5C10.5376 12.5 13 10.0376 13 7C13 3.96243 10.5376 1.5 7.5 1.5C4.46243 1.5 2 3.96243 2 7C2 10.0376 4.46243 12.5 7.5 12.5Z" fill="#4A4A4A"/>
</svg>
