<svg width="16" height="17" viewBox="0 0 16 17" fill="none" xmlns="http://www.w3.org/2000/svg">
<path d="M9.66673 7.05551C10.127 7.05551 10.5001 7.42861 10.5001 7.88885V12.6111C10.5001 13.0713 10.127 13.4444 9.66673 13.4444C9.2065 13.4444 8.8334 13.0713 8.8334 12.6111V7.88885C8.8334 7.42861 9.2065 7.05551 9.66673 7.05551Z" fill="#4A4A4A"/>
<path d="M7.16673 7.88885C7.16673 7.42861 6.79364 7.05551 6.3334 7.05551C5.87316 7.05551 5.50007 7.42861 5.50007 7.88885V12.6111C5.50007 13.0713 5.87316 13.4444 6.3334 13.4444C6.79364 13.4444 7.16673 13.0713 7.16673 12.6111V7.88885Z" fill="#4A4A4A"/>
<path fill-rule="evenodd" clip-rule="evenodd" d="M4.94444 3.72218C4.94444 2.03464 6.31246 0.666626 8 0.666626C9.68754 0.666626 11.0556 2.03464 11.0556 3.72218H14.389C14.8492 3.72218 15.2223 4.09528 15.2223 4.55551C15.2223 5.01575 14.8492 5.38885 14.389 5.38885H13.5555L13.5554 11.4445C13.5554 13.3113 13.5553 14.2447 13.192 14.9577C12.8724 15.5849 12.3625 16.0949 11.7353 16.4144C11.0222 16.7777 10.0888 16.7777 8.22201 16.7777H7.77783C5.91094 16.7777 4.97749 16.7777 4.26443 16.4144C3.63722 16.0948 3.12727 15.5849 2.8077 14.9577C2.44439 14.2446 2.44441 13.3112 2.44445 11.4443L2.44457 5.38885H1.61118C1.15094 5.38885 0.777845 5.01575 0.777845 4.55551C0.777845 4.09528 1.15094 3.72218 1.61118 3.72218H4.94444ZM6.61111 3.72218C6.61111 2.95512 7.23294 2.33329 8 2.33329C8.76706 2.33329 9.38889 2.95512 9.38889 3.72218H6.61111ZM4.11125 5.38885H11.8888L11.8887 11.4445C11.8887 12.4054 11.8874 13.0258 11.8488 13.498C11.8118 13.9508 11.749 14.1187 11.707 14.2011C11.5472 14.5147 11.2922 14.7696 10.9786 14.9294C10.8962 14.9714 10.7284 15.0342 10.2756 15.0712C9.80337 15.1098 9.18292 15.1111 8.22201 15.1111H7.77783C6.81688 15.1111 6.19641 15.1098 5.72416 15.0712C5.27138 15.0342 5.10351 14.9714 5.0211 14.9294C4.70749 14.7696 4.45252 14.5146 4.29273 14.201C4.25075 14.1186 4.18795 13.9508 4.15097 13.498C4.11239 13.0257 4.11111 12.4053 4.11113 11.4443L4.11125 5.38885Z" fill="#4A4A4A"/>
</svg>
